<svg width="128" height="128" viewBox="0 0 128 128" fill="none" xmlns="http://www.w3.org/2000/svg">
<circle cx="64" cy="64" r="64" fill="#242424"/>
<g clip-path="url(#clip0_11_19)">
<path d="M79.84 79.84C75.2816 83.3147 69.731 85.2396 64 85.3333C45.3334 85.3333 34.6667 64 34.6667 64C37.9837 57.8184 42.5844 52.4176 48.16 48.16M58.4 43.3067C60.2356 42.877 62.1149 42.6622 64 42.6667C82.6667 42.6667 93.3334 64 93.3334 64C91.7146 67.0283 89.7842 69.8793 87.5734 72.5067M69.6534 69.6533C68.921 70.4393 68.0378 71.0697 67.0564 71.507C66.0751 71.9442 65.0158 72.1794 63.9416 72.1983C62.8674 72.2173 61.8005 72.0197 60.8043 71.6173C59.8082 71.215 58.9033 70.6161 58.1436 69.8564C57.3839 69.0967 56.7851 68.1918 56.3827 67.1957C55.9804 66.1996 55.7828 65.1326 55.8017 64.0584C55.8207 62.9843 56.0558 61.9249 56.493 60.9436C56.9303 59.9623 57.5607 59.0791 58.3467 58.3467" stroke="white" stroke-width="4" stroke-linecap="round" stroke-linejoin="round"/>
<path d="M34.6667 34.6667L93.3334 93.3333" stroke="white" stroke-width="4" stroke-linecap="round" stroke-linejoin="round"/>
</g>
<defs>
<clipPath id="clip0_11_19">
<rect width="64" height="64" fill="white" transform="translate(32 32)"/>
</clipPath>
</defs>
</svg>
